<svg t="1709815022124" class="icon" viewBox="0 0 1024 1024" version="1.1" xmlns="http://www.w3.org/2000/svg" p-id="11617" width="200" height="200"><path d="M56.888889 170.034568h910.222222c27.812346 0 50.567901-22.755556 50.567901-50.567901s-22.755556-50.567901-50.567901-50.567902H56.888889c-27.812346 0-50.567901 22.755556-50.567901 50.567902 0 28.444444 22.755556 50.567901 50.567901 50.567901zM967.111111 461.432099H56.888889c-27.812346 0-50.567901 22.755556-50.567901 50.567901s22.755556 50.567901 50.567901 50.567901h910.222222c27.812346 0 50.567901-22.755556 50.567901-50.567901s-22.755556-50.567901-50.567901-50.567901z m0 392.533333H56.888889c-27.812346 0-50.567901 22.755556-50.567901 50.567901s22.755556 50.567901 50.567901 50.567902h910.222222c27.812346 0 50.567901-22.755556 50.567901-50.567902 0-28.444444-22.755556-50.567901-50.567901-50.567901z m0 0" p-id="11618" fill="#ffffff"></path></svg>