<svg width="11" height="11" viewBox="0 0 11 11" fill="none" xmlns="http://www.w3.org/2000/svg">
<path d="M1.32925 3.2771C1.44383 3.16252 1.5795 3.10522 1.73625 3.10522C1.893 3.10522 2.02851 3.16252 2.14279 3.2771L5.50008 6.63439L8.86883 3.26564C8.97578 3.1587 9.10946 3.10522 9.26987 3.10522C9.43029 3.10522 9.56779 3.16252 9.68237 3.2771C9.79696 3.39168 9.85425 3.52735 9.85425 3.6841C9.85425 3.84085 9.79696 3.97636 9.68237 4.09064L5.82092 7.94064C5.77508 7.98648 5.72543 8.01902 5.67196 8.03827C5.61848 8.05752 5.56119 8.06699 5.50008 8.06668C5.43897 8.06668 5.38168 8.05706 5.32821 8.03781C5.27473 8.01856 5.22508 7.98617 5.17925 7.94064L1.31779 4.07918C1.21085 3.97224 1.15737 3.84039 1.15737 3.68364C1.15737 3.52689 1.21467 3.39138 1.32925 3.2771Z" fill="#98A7B5"/>
</svg>
