<svg xmlns="http://www.w3.org/2000/svg" width="24" height="24" viewBox="0 0 24 24" fill="none"><rect x="1.42" y="10.2" width="22" height="12" rx="3.6" fill="url(#paint0_linear_2786_3338)" filter="url(#filter0_b_2786_3338)"/><path d="M19 11.5H5v-2a7 7 0 0 1 14 0v2zm-12-2h10a5 5 0 0 0-10 0z" fill="url(#paint1_linear_2786_3338)"/><g filter="url(#filter1_b_2786_3338)"><path d="M19 21.5H5a4 4 0 0 1-4-4v-4a4 4 0 0 1 4-4h14a4 4 0 0 1 4 4v4a4 4 0 0 1-4 4zm-14-10a2 2 0 0 0-2 2v4a2 2 0 0 0 2 2h14a2 2 0 0 0 2-2v-4a2 2 0 0 0-2-2H5z" fill="#fff" fill-opacity=".33"/><path d="M19 21.35H5a3.85 3.85 0 0 1-3.85-3.85v-4A3.85 3.85 0 0 1 5 9.65h14a3.85 3.85 0 0 1 3.85 3.85v4A3.85 3.85 0 0 1 19 21.35zm-14-10a2.15 2.15 0 0 0-2.15 2.15v4A2.15 2.15 0 0 0 5 19.65h14a2.15 2.15 0 0 0 2.15-2.15v-4A2.15 2.15 0 0 0 19 11.35H5z" stroke="#fff" stroke-opacity=".17" stroke-width=".3"/></g><path d="M19 10.5H5a3 3 0 0 0-3 3v4a3 3 0 0 0 3 3h14a3 3 0 0 0 3-3v-4a3 3 0 0 0-3-3zm-13 6a1 1 0 1 1 0-2 1 1 0 0 1 0 2zm4 0a1 1 0 1 1 0-2 1 1 0 0 1 0 2zm4 0a1 1 0 1 1 0-2 1 1 0 0 1 0 2zm4 0a1 1 0 1 1 0-2 1 1 0 0 1 0 2z" fill="#A8F779" fill-opacity=".33" filter="url(#filter2_b_2786_3338)"/><defs><filter id="filter0_b_2786_3338" x=".22" y="9" width="24.4" height="14.4" filterUnits="userSpaceOnUse" color-interpolation-filters="sRGB"><feFlood flood-opacity="0" result="BackgroundImageFix"/><feGaussianBlur in="BackgroundImageFix" stdDeviation=".6"/><feComposite in2="SourceAlpha" operator="in" result="effect1_backgroundBlur_2786_3338"/><feBlend in="SourceGraphic" in2="effect1_backgroundBlur_2786_3338" result="shape"/></filter><filter id="filter1_b_2786_3338" x="-.2" y="8.3" width="24.4" height="14.4" filterUnits="userSpaceOnUse" color-interpolation-filters="sRGB"><feFlood flood-opacity="0" result="BackgroundImageFix"/><feGaussianBlur in="BackgroundImageFix" stdDeviation=".6"/><feComposite in2="SourceAlpha" operator="in" result="effect1_backgroundBlur_2786_3338"/><feBlend in="SourceGraphic" in2="effect1_backgroundBlur_2786_3338" result="shape"/></filter><filter id="filter2_b_2786_3338" x=".8" y="9.3" width="22.4" height="12.4" filterUnits="userSpaceOnUse" color-interpolation-filters="sRGB"><feFlood flood-opacity="0" result="BackgroundImageFix"/><feGaussianBlur in="BackgroundImageFix" stdDeviation=".6"/><feComposite in2="SourceAlpha" operator="in" result="effect1_backgroundBlur_2786_3338"/><feBlend in="SourceGraphic" in2="effect1_backgroundBlur_2786_3338" result="shape"/></filter><linearGradient id="paint0_linear_2786_3338" x1="9.295" y1="21.172" x2="9.295" y2="12.159" gradientUnits="userSpaceOnUse"><stop stop-color="#3BC117"/><stop offset="1" stop-color="#219A00"/></linearGradient><linearGradient id="paint1_linear_2786_3338" x1="12.102" y1="2.741" x2="12.102" y2="11.5" gradientUnits="userSpaceOnUse"><stop stop-color="#36CB0E"/><stop offset="1" stop-color="#156200"/></linearGradient></defs></svg>